<svg width="1440" height="470" viewBox="0 0 1440 470" fill="none" xmlns="http://www.w3.org/2000/svg">
<g clip-path="url(#clip0_459_4927)">
<rect width="1440" height="470" fill="url(#paint0_linear_459_4927)"/>
<path opacity="0.1" d="M376.118 479.468C302.031 456.642 232.277 418.161 199.699 345.706C186.889 317.216 172.067 284.94 157.078 250.547C127.987 224.023 99.0653 199.867 71.1369 179.756C-98.5329 57.5771 -45.5385 -90.0326 -4.33768 -184.609C28.623 -260.27 63.5925 -181.399 76.9572 -132.506C44.3584 -31.6863 101.848 123.811 157.078 250.547C233.965 320.645 312.041 407.278 376.118 479.468C475.186 509.991 582.003 512.523 618.044 530.867C681.036 562.931 564.115 662.454 505.622 617.933C482.203 600.109 435.089 545.905 376.118 479.468Z" fill="#FFF0F5"/>
<path opacity="0.1" d="M1045.51 535.468C1119.6 512.642 1189.35 474.161 1221.93 401.706C1234.74 373.216 1249.56 340.94 1264.55 306.547C1293.64 280.023 1322.57 255.867 1350.49 235.756C1520.16 113.577 1467.17 -34.0326 1425.97 -128.609C1393.01 -204.27 1358.04 -125.399 1344.67 -76.5062C1377.27 24.3137 1319.78 179.811 1264.55 306.547C1187.67 376.645 1109.59 463.278 1045.51 535.468C946.444 565.991 839.628 568.523 803.587 586.867C740.595 618.931 857.516 718.454 916.009 673.933C939.428 656.109 986.542 601.905 1045.51 535.468Z" fill="#FFF0F5"/>
</g>
<defs>
<linearGradient id="paint0_linear_459_4927" x1="720" y1="82.9412" x2="719.997" y2="1391.39" gradientUnits="userSpaceOnUse">
<stop stop-color="#747EE9"/>
<stop offset="1" stop-color="#10054D"/>
</linearGradient>
<clipPath id="clip0_459_4927">
<rect width="1440" height="470" fill="white"/>
</clipPath>
</defs>
</svg>
