<svg width="75" height="24" viewBox="0 0 75 24" fill="none" xmlns="http://www.w3.org/2000/svg">
<path d="M61.2494 6.90576C60.9763 6.88887 60.7411 7.09662 60.7243 7.36977L60.2459 7.3402C60.2791 6.80287 60.7417 6.39421 61.279 6.42743C61.8163 6.46064 62.225 6.92316 62.1918 7.46049L61.7134 7.43092C61.7303 7.15776 61.5226 6.92264 61.2494 6.90576Z" fill="#747EE9"/>
<path fill-rule="evenodd" clip-rule="evenodd" d="M58.0087 7.68646C59.2287 8.53191 60.0948 8.06094 60.3767 7.83285C61.1753 7.48045 61.8657 7.75749 62.1111 7.94006C62.043 7.95817 62.4927 8.26497 62.9597 8.29384C63.595 8.33312 63.9185 8.20285 64.2605 8.06514C64.4032 8.00767 64.5492 7.94889 64.7224 7.90061C65.2615 7.75031 65.813 7.90107 65.9676 8.37934C66.1751 9.02155 65.8304 9.21315 65.4226 9.43989C65.288 9.51468 65.1466 9.5933 65.0159 9.69318C64.4888 10.0958 64.6892 10.6439 65.6576 12.3108C66.9276 14.4971 65.7251 16.6339 63.9454 17.2604C62.1658 17.8869 58.7975 18.2144 56.72 16.0772C55.058 14.3674 56.3726 11.9488 57.2376 10.9533C57.9259 9.71659 57.5132 9.47443 57.0046 9.17604C56.901 9.11521 56.7933 9.05203 56.6902 8.97762C55.9145 8.52791 56.6743 7.06829 58.0087 7.68646ZM59.8913 8.63632C60.2741 8.72179 61.3356 8.84145 62.5197 8.63632C62.1071 8.81133 61.0039 9.05634 59.8913 8.63632ZM65.2536 12.8612C66.2973 14.8217 64.988 16.4073 64.2029 16.955C65.7527 15.4921 65.4336 13.6864 65.0803 12.9663C64.7032 12.1144 65.1186 12.6077 65.2536 12.8612Z" fill="#747EE9"/>
<path d="M63.296 15.9948C63.296 17.1725 62.3412 18.1273 61.1635 18.1273C59.9858 18.1273 59.0311 17.1725 59.0311 15.9948C59.0311 14.8171 59.9858 13.8624 61.1635 13.8624C62.3412 13.8624 63.296 14.8171 63.296 15.9948Z" fill="white" stroke="#747EE9" stroke-width="0.168115"/>
<path d="M60.2769 15.7573V14.7535H61.034L60.2769 15.7573Z" fill="#747EE9"/>
<path d="M60.2769 16.2408V17.2445H61.034L60.2769 16.2408Z" fill="#747EE9"/>
<path fill-rule="evenodd" clip-rule="evenodd" d="M60.6109 16.0054L61.5399 14.7615C61.788 14.7371 62.2817 14.8213 62.2716 15.3533C62.2614 15.8852 61.7991 16.0097 61.5399 16.0054V17.2477L60.6109 16.0054ZM61.5414 15.0701V15.636C61.6632 15.6534 61.9083 15.6224 61.9146 15.3584C61.9204 15.113 61.648 15.0701 61.5414 15.0701Z" fill="#747EE9"/>
<path d="M9.16717 17.1429C9.10233 17.1429 8.97265 17.1266 8.77812 17.0942C8.5998 17.0618 8.29179 16.8105 7.8541 16.3404L6.37082 14.0547C5.98176 13.4711 5.5765 12.9119 5.15502 12.3769C4.32827 11.3718 3.72037 10.8693 3.33131 10.8693C3.21783 10.8693 3.08004 10.926 2.91793 11.0395C2.75583 11.153 2.67477 11.6393 2.67477 12.4985C2.64235 13.3252 2.61803 13.998 2.60182 14.5167C2.60182 15.0192 2.60182 15.7244 2.60182 16.6322C2.5694 16.9726 2.2614 17.1429 1.67781 17.1429C1.33739 17.1429 0.972644 17.0537 0.583587 16.8754C0.194529 16.6809 0 16.3485 0 15.8784C0 8.47011 0.113475 3.85816 0.340426 2.04255C0.453901 0.924012 0.66464 0.299899 0.972644 0.170213C1.06991 0.121581 1.19149 0.0972646 1.33739 0.0972646H1.89666C2.54509 0.0972646 2.90983 0.486322 2.99088 1.26444C3.0233 1.55623 3.03951 1.89666 3.03951 2.28572C3.03951 2.99899 2.98278 3.85816 2.8693 4.86322L2.67477 7.36778C2.67477 7.5461 2.73151 7.68389 2.84499 7.78115C2.95846 7.87842 3.08815 7.92705 3.23404 7.92705C3.42857 7.92705 3.58257 7.8541 3.69605 7.70821C3.93921 7.33536 4.2229 6.84904 4.54711 6.24924C5.19554 5.01722 6.07092 3.64742 7.17325 2.13982L7.29483 2.01824C7.50557 1.71023 7.75684 1.38602 8.04863 1.04559C8.35664 0.705167 8.62411 0.486323 8.85106 0.389059L9.09423 0.340425C9.25633 0.324215 9.44276 0.31611 9.6535 0.31611C9.92908 0.31611 10.156 0.33232 10.3343 0.364741C10.6099 0.445795 10.7477 0.599797 10.7477 0.826749C10.7477 0.940223 10.7072 1.07801 10.6261 1.24012C10.3181 1.88855 9.09423 3.60689 6.95441 6.39514L4.81459 9.31307C4.99291 9.54002 5.29281 9.85613 5.71429 10.2614C6.6383 11.1368 7.60284 12.1743 8.6079 13.3739C9.62918 14.5735 10.1479 15.619 10.1641 16.5106C10.0669 16.6565 9.92908 16.8024 9.75076 16.9483C9.58865 17.078 9.39413 17.1429 9.16717 17.1429Z" fill="#747EE9"/>
<path d="M12.4177 17.0456C12.1097 17.0456 11.7774 16.5593 11.4208 15.5866C11.4208 11.0638 11.437 7.91895 11.4694 6.15198C11.518 5.86018 11.6964 5.65755 12.0044 5.54407C12.1827 5.47923 12.3772 5.44681 12.588 5.44681C12.7014 5.44681 12.8635 5.47112 13.0743 5.51976C13.3012 5.56839 13.4877 5.74671 13.6335 6.05471C13.6335 7.46505 13.6011 8.85106 13.5363 10.2128C13.4877 11.5745 13.3661 13.382 13.1715 15.6353C13.0905 16.4296 12.8798 16.8916 12.5393 17.0213C12.5069 17.0375 12.4664 17.0456 12.4177 17.0456Z" fill="#747EE9"/>
<path d="M23.0228 17.1429C22.65 17.1429 22.3419 17.1185 22.0988 17.0699C21.8556 17.0051 21.7016 16.8754 21.6368 16.6809C21.5881 16.4863 21.5638 16.2269 21.5638 15.9027V15.3678C20.4939 16.5512 19.4889 17.1429 18.5486 17.1429C18.5 17.1429 18.2082 17.1266 17.6733 17.0942C17.1545 17.0456 16.5709 16.5836 15.9225 15.7082C15.2903 14.8166 14.9742 13.8521 14.9742 12.8146C14.9742 10.999 15.2416 9.59676 15.7766 8.6079C16.652 6.97062 17.9407 6.15198 19.6429 6.15198C19.7563 6.15198 20.0319 6.17629 20.4696 6.22492C20.9073 6.27356 21.3693 6.45998 21.8556 6.78419C21.7746 5.98987 21.6935 5.26849 21.6125 4.62006C21.4341 3.43668 21.345 2.48024 21.345 1.75076C21.345 1.39412 21.3693 1.09423 21.4179 0.851064C21.5152 0.283688 21.8799 0 22.5122 0C22.6905 0 22.885 0.0243163 23.0957 0.0729488C23.5983 0.12158 23.9468 0.243161 24.1413 0.43769C24.3359 0.616008 24.4331 1.00507 24.4331 1.60486C24.4331 2.31814 24.344 3.65552 24.1657 5.61702C24.117 6.26545 24.0522 6.99493 23.9711 7.80547C23.9387 8.35664 23.9225 8.99696 23.9225 9.72644L23.9468 11.4043C23.9468 12.9929 23.8414 14.8977 23.6307 17.1185L23.0228 17.1429ZM18.4757 15.9757C18.7351 15.9757 19.0106 15.846 19.3024 15.5866C20.3237 14.7275 21.118 13.4549 21.6854 11.769C21.7178 11.4772 21.734 11.2016 21.734 10.9422C21.734 10.0669 21.5476 9.36981 21.1748 8.85106C20.8181 8.33232 20.3886 8.07295 19.886 8.07295C19.7239 8.07295 19.424 8.13779 18.9863 8.26748C18.5648 8.39716 18.0785 9.16717 17.5274 10.5775C17.2356 11.4367 17.0897 12.2553 17.0897 13.0334C17.0897 13.228 17.114 13.617 17.1626 14.2006C17.2275 14.768 17.4625 15.2624 17.8678 15.6839C18.0623 15.8784 18.2649 15.9757 18.4757 15.9757Z" fill="#747EE9"/>
<path d="M33.3049 17.1429C32.9321 17.1429 32.6241 17.1185 32.3809 17.0699C32.1377 17.0051 31.9837 16.8754 31.9189 16.6809C31.8703 16.4863 31.8459 16.2269 31.8459 15.9027V15.3678C30.776 16.5512 29.771 17.1429 28.8307 17.1429C28.7821 17.1429 28.4903 17.1266 27.9554 17.0942C27.4366 17.0456 26.853 16.5836 26.2046 15.7082C25.5724 14.8166 25.2563 13.8521 25.2563 12.8146C25.2563 10.999 25.5237 9.59676 26.0587 8.6079C26.9341 6.97062 28.2228 6.15198 29.925 6.15198C30.0384 6.15198 30.314 6.17629 30.7517 6.22492C31.1894 6.27356 31.6514 6.45998 32.1377 6.78419C32.0567 5.98987 31.9756 5.26849 31.8946 4.62006C31.7163 3.43668 31.6271 2.48024 31.6271 1.75076C31.6271 1.39412 31.6514 1.09423 31.7 0.851064C31.7973 0.283688 32.162 0 32.7943 0C32.9726 0 33.1671 0.0243163 33.3779 0.0729488C33.8804 0.12158 34.2289 0.243161 34.4234 0.43769C34.618 0.616008 34.7152 1.00507 34.7152 1.60486C34.7152 2.31814 34.6261 3.65552 34.4478 5.61702C34.3991 6.26545 34.3343 6.99493 34.2532 7.80547C34.2208 8.35664 34.2046 8.99696 34.2046 9.72644L34.2289 11.4043C34.2289 12.9929 34.1235 14.8977 33.9128 17.1185L33.3049 17.1429ZM28.7578 15.9757C29.0172 15.9757 29.2927 15.846 29.5845 15.5866C30.6058 14.7275 31.4001 13.4549 31.9675 11.769C31.9999 11.4772 32.0162 11.2016 32.0162 10.9422C32.0162 10.0669 31.8297 9.36981 31.4569 8.85106C31.1002 8.33232 30.6707 8.07295 30.1681 8.07295C30.006 8.07295 29.7061 8.13779 29.2684 8.26748C28.847 8.39716 28.3606 9.16717 27.8095 10.5775C27.5177 11.4367 27.3718 12.2553 27.3718 13.0334C27.3718 13.228 27.3961 13.617 27.4447 14.2006C27.5096 14.768 27.7446 15.2624 28.1499 15.6839C28.3444 15.8784 28.5471 15.9757 28.7578 15.9757Z" fill="#747EE9"/>
<path d="M39.8621 24C39.7324 24 39.3839 23.9676 38.8165 23.9027C38.2491 23.8541 37.7952 23.3273 37.4548 22.3222C37.3737 21.9818 37.3332 21.6575 37.3332 21.3495C37.3332 19.9392 38.4193 18.537 40.5916 17.1429L41.4913 16.462V16.3161C41.5399 15.4407 41.5642 14.8004 41.5642 14.3951C40.705 15.8703 39.9269 16.7376 39.2299 16.997C39.0191 17.0618 38.8165 17.0942 38.622 17.0942C38.1843 17.0942 37.7466 16.8592 37.3089 16.3891C36.8874 15.9027 36.5227 15.1814 36.2147 14.2249C35.9553 13.4306 35.8256 12.4012 35.8256 11.1368C35.8256 9.85613 35.9877 8.71327 36.3119 7.70821C36.6524 6.68693 37.1873 6.15198 37.9168 6.10334C38.3221 6.13577 38.5247 6.45187 38.5247 7.05167C38.5247 7.45694 38.4842 7.89463 38.4031 8.36474L38.3302 8.82675C38.2005 9.86423 38.1356 10.7801 38.1356 11.5745C38.1356 11.8176 38.1519 12.2391 38.1843 12.8389C38.2167 13.4387 38.4517 14.0142 38.8894 14.5654C39.1002 14.8247 39.2947 14.9544 39.473 14.9544C39.8783 14.9544 40.243 14.3303 40.5673 13.0821C40.8104 12.1418 41.0212 11.1854 41.1995 10.2128C41.3129 9.54813 41.394 8.64032 41.4426 7.48936L41.4913 6.6383C41.5399 6.33029 41.7993 6.17629 42.2694 6.17629C42.626 6.17629 42.9908 6.26545 43.3636 6.44377C43.7527 6.60588 43.9715 6.84904 44.0201 7.17325C44.085 8.04863 44.1174 9.02938 44.1174 10.1155C44.1174 11.6555 44.0526 13.4063 43.9229 15.3678C43.8418 17.0051 43.777 18.5694 43.7283 20.0608C43.6473 21.4225 43.161 22.4438 42.2694 23.1246C41.5075 23.7082 40.705 24 39.8621 24ZM39.4244 22.7599C39.781 22.7599 40.2106 22.5086 40.7131 22.0061C41.2157 21.5198 41.4913 20.2958 41.5399 18.3343V18.0182C41.5561 18.002 41.5642 17.9372 41.5642 17.8237V17.1915C39.7972 18.4073 38.7679 19.5015 38.4761 20.4742C38.3788 20.8308 38.3302 21.1469 38.3302 21.4225C38.3302 21.9088 38.4923 22.2817 38.8165 22.541C39.011 22.6869 39.2137 22.7599 39.4244 22.7599Z" fill="#747EE9"/>
<path d="M47.6748 16.997C47.6261 16.997 47.4884 16.9889 47.2614 16.9726C47.0507 16.9564 46.8075 16.8511 46.5319 16.6565C46.2563 16.4458 46.1104 16.227 46.0942 16C46.0132 11.4448 45.9726 8.72138 45.9726 7.82979C45.9726 6.7923 45.9808 5.80345 45.997 4.86322C46.0132 3.923 46.0537 3.13678 46.1185 2.50456C46.1834 1.87234 46.2644 1.42655 46.3617 1.16717C46.459 0.891591 46.5643 0.729483 46.6778 0.680851C46.8075 0.616008 46.9372 0.583586 47.0669 0.583586H47.2614C47.9098 0.583586 48.3394 0.745694 48.5502 1.06991C48.7609 1.37791 48.9068 1.8156 48.9878 2.38298L49.0851 2.77204C49.4742 1.86424 49.9362 1.24823 50.4711 0.924012C51.0061 0.599797 51.7761 0.43769 52.7812 0.43769C53.9645 0.43769 54.8886 0.87538 55.5532 1.75076C56.2178 2.62614 56.5583 3.70415 56.5745 4.9848C56.5745 6.28166 56.1773 7.5542 55.383 8.80243C54.9453 9.58055 54.2563 10.2695 53.3161 10.8693C52.5704 11.3394 51.4681 11.5745 50.0091 11.5745C49.6525 11.5745 49.2715 11.5583 48.8663 11.5258C48.9149 12.2877 48.9392 12.9767 48.9392 13.5927C48.9392 14.9544 48.8176 15.9838 48.5745 16.6809C48.2827 16.8916 47.9828 16.997 47.6748 16.997ZM48.9878 9.70213C50.7062 9.42655 52.0841 8.68896 53.1216 7.48936C54.1753 6.28977 54.7021 5.09017 54.7021 3.89058C54.7021 2.78825 54.0861 2.1074 52.8541 1.84803C52.6758 1.8156 52.4975 1.79939 52.3192 1.79939C51.849 1.79939 51.3627 1.94529 50.8602 2.23708C50.3577 2.52888 49.92 3.25025 49.5471 4.40122C49.1743 5.55218 48.9878 7.31915 48.9878 9.70213Z" fill="#747EE9"/>
<path d="M68.9089 18.234C68.6658 18.234 68.3659 18.2178 68.0092 18.1854L68.0335 14.1246C68.0335 11.7903 67.9849 8.76696 67.8876 5.0547V4.4468L66.6962 4.42248L65.5776 4.4468C65.0265 4.4468 64.5401 4.39006 64.1187 4.27659C64.0376 4.08206 63.9971 3.91185 63.9971 3.76595C63.9971 3.57142 64.0943 3.40121 64.2889 3.25531C64.4672 3.0932 64.9211 3.01215 65.6506 3.01215L66.5989 3.03647L67.3284 3.06078C67.5391 3.06078 67.7336 3.05268 67.912 3.03647C67.9768 2.1773 68.147 1.65855 68.4226 1.48023C68.6009 1.35055 68.8522 1.28571 69.1764 1.28571L69.6141 1.31002C70.5057 1.34244 70.9515 1.82066 70.9515 2.74467L70.9272 3.0851C72.9211 3.11752 74.072 3.24721 74.38 3.47416C74.4773 3.52279 74.5259 3.60384 74.5259 3.71732C74.5259 3.76595 74.5097 3.85511 74.4773 3.98479C74.4449 4.09827 74.2504 4.30901 73.8937 4.61701C73.1156 4.6008 72.0943 4.56838 70.8299 4.51975C70.5543 6.48125 70.4084 8.57243 70.3922 10.7933C70.376 13.0142 70.222 15.3242 69.9302 17.7234C69.8329 17.999 69.6465 18.1611 69.3709 18.2097C69.2412 18.2259 69.0872 18.234 68.9089 18.234Z" fill="#747EE9"/>
<path d="M11.248 4.92217C11.248 4.1943 11.8113 3.60425 12.5061 3.60425C13.2008 3.60425 13.7641 4.1943 13.7641 4.92217" stroke="#747EE9" stroke-width="1.59913"/>
</svg>
