<svg width="100" height="100" viewBox="0 0 100 100" fill="none" xmlns="http://www.w3.org/2000/svg">
<path d="M24.0816 45.5145H17.591C17.332 45.5145 17.0836 45.4116 16.9005 45.2284C16.7173 45.0453 16.6144 44.7969 16.6144 44.5379V38.0469C16.6144 37.7879 16.7173 37.5395 16.9005 37.3563C17.0836 37.1732 17.332 37.0703 17.591 37.0703H24.0816C24.3406 37.0703 24.589 37.1732 24.7722 37.3563C24.9553 37.5395 25.0582 37.7879 25.0582 38.0469V44.5379C25.0582 44.7969 24.9553 45.0453 24.7722 45.2284C24.589 45.4116 24.3406 45.5145 24.0816 45.5145V45.5145ZM18.5676 43.5613H23.1051V39.0234H18.5676V43.5613Z" fill="#747EE9"/>
<path d="M85.257 53.9711H68.6086C68.3496 53.9711 68.1012 54.074 67.9181 54.2571C67.7349 54.4402 67.632 54.6886 67.632 54.9476C67.632 55.2066 67.7349 55.455 67.9181 55.6382C68.1012 55.8213 68.3496 55.9242 68.6086 55.9242H85.257C85.9137 55.925 86.5432 56.1863 87.0075 56.6506C87.4717 57.115 87.7329 57.7445 87.7336 58.4011V59.9035H68.8785C68.6195 59.9035 68.3711 60.0064 68.188 60.1895C68.0049 60.3727 67.902 60.6211 67.902 60.8801C67.902 61.1391 68.0049 61.3875 68.188 61.5706C68.3711 61.7537 68.6195 61.8566 68.8785 61.8566H87.7344V67.5082H36.2742V64.7863C36.2742 64.5273 36.1713 64.2789 35.9882 64.0958C35.8051 63.9126 35.5567 63.8097 35.2977 63.8097C35.0387 63.8097 34.7903 63.9126 34.6071 64.0958C34.424 64.2789 34.3211 64.5273 34.3211 64.7863V81.6535C34.3224 82.8278 34.7895 83.9537 35.6197 84.7841C36.45 85.6146 37.5757 86.0819 38.75 86.0836H85.257C86.4315 86.0821 87.5574 85.6149 88.3878 84.7844C89.2183 83.9539 89.6854 82.8279 89.6867 81.6535V58.4011C89.6854 57.2267 89.2183 56.1007 88.3878 55.2702C87.5574 54.4397 86.4315 53.9725 85.257 53.9711V53.9711ZM85.257 84.1304H38.75C38.0933 84.1296 37.4638 83.8684 36.9995 83.4041C36.5351 82.9397 36.2739 82.3102 36.2731 81.6535V69.4613H87.7344V81.6535C87.7337 82.3103 87.4724 82.9399 87.008 83.4043C86.5435 83.8687 85.9138 84.1298 85.257 84.1304V84.1304Z" fill="#4F5D6D"/>
<path d="M47.7547 78.0199H41.5992C41.3402 78.0199 41.0918 78.1228 40.9087 78.3059C40.7256 78.4891 40.6227 78.7375 40.6227 78.9965C40.6227 79.2555 40.7256 79.5039 40.9087 79.687C41.0918 79.8701 41.3402 79.973 41.5992 79.973H47.7547C48.0137 79.973 48.2621 79.8701 48.4452 79.687C48.6284 79.5039 48.7313 79.2555 48.7313 78.9965C48.7313 78.7375 48.6284 78.4891 48.4452 78.3059C48.2621 78.1228 48.0137 78.0199 47.7547 78.0199V78.0199Z" fill="#4F5D6D"/>
<path d="M59.3059 78.0199H53.1504C52.8914 78.0199 52.643 78.1228 52.4599 78.3059C52.2767 78.4891 52.1738 78.7375 52.1738 78.9965C52.1738 79.2555 52.2767 79.5039 52.4599 79.687C52.643 79.8701 52.8914 79.973 53.1504 79.973H59.3059C59.5649 79.973 59.8133 79.8701 59.9964 79.687C60.1795 79.5039 60.2824 79.2555 60.2824 78.9965C60.2824 78.7375 60.1795 78.4891 59.9964 78.3059C59.8133 78.1228 59.5649 78.0199 59.3059 78.0199V78.0199Z" fill="#4F5D6D"/>
<path d="M70.8594 78.0199H64.7023C64.4433 78.0199 64.1949 78.1228 64.0118 78.3059C63.8287 78.4891 63.7258 78.7375 63.7258 78.9965C63.7258 79.2555 63.8287 79.5039 64.0118 79.687C64.1949 79.8701 64.4433 79.973 64.7023 79.973H70.8594C71.1184 79.973 71.3668 79.8701 71.5499 79.687C71.733 79.5039 71.8359 79.2555 71.8359 78.9965C71.8359 78.7375 71.733 78.4891 71.5499 78.3059C71.3668 78.1228 71.1184 78.0199 70.8594 78.0199V78.0199Z" fill="#4F5D6D"/>
<path d="M82.409 78.0199H76.2535C75.9945 78.0199 75.7461 78.1228 75.563 78.3059C75.3799 78.4891 75.277 78.7375 75.277 78.9965C75.277 79.2555 75.3799 79.5039 75.563 79.687C75.7461 79.8701 75.9945 79.973 76.2535 79.973H82.409C82.668 79.973 82.9164 79.8701 83.0995 79.687C83.2827 79.5039 83.3856 79.2555 83.3856 78.9965C83.3856 78.7375 83.2827 78.4891 83.0995 78.3059C82.9164 78.1228 82.668 78.0199 82.409 78.0199V78.0199Z" fill="#4F5D6D"/>
<path d="M59.3059 72.8597H41.5992C41.3402 72.8597 41.0918 72.9626 40.9087 73.1458C40.7256 73.3289 40.6227 73.5773 40.6227 73.8363C40.6227 74.0953 40.7256 74.3437 40.9087 74.5268C41.0918 74.71 41.3402 74.8129 41.5992 74.8129H59.3059C59.5649 74.8129 59.8133 74.71 59.9964 74.5268C60.1796 74.3437 60.2824 74.0953 60.2824 73.8363C60.2824 73.5773 60.1796 73.3289 59.9964 73.1458C59.8133 72.9626 59.5649 72.8597 59.3059 72.8597V72.8597Z" fill="#4F5D6D"/>
<path d="M65.6789 57.427V44.5363C65.6789 44.2773 65.576 44.0289 65.3929 43.8458C65.2097 43.6627 64.9614 43.5598 64.7024 43.5598C64.4434 43.5598 64.195 43.6627 64.0118 43.8458C63.8287 44.0289 63.7258 44.2773 63.7258 44.5363V57.427C63.725 58.0836 63.4637 58.7131 62.9994 59.1774C62.535 59.6417 61.9055 59.9028 61.2488 59.9035H14.743C14.0864 59.9028 13.4569 59.6416 12.9926 59.1773C12.5283 58.7131 12.2671 58.0836 12.2664 57.427V34.1738C12.2671 33.5172 12.5283 32.8877 12.9926 32.4234C13.4569 31.9591 14.0864 31.698 14.743 31.6973H44.677C44.936 31.6973 45.1844 31.5944 45.3675 31.4112C45.5506 31.2281 45.6535 30.9797 45.6535 30.7207C45.6535 30.4617 45.5506 30.2133 45.3675 30.0302C45.1844 29.847 44.936 29.7441 44.677 29.7441H14.743C13.5684 29.7453 12.4423 30.2123 11.6117 31.0428C10.7811 31.8732 10.3138 32.9993 10.3125 34.1738V57.427C10.3138 58.6014 10.781 59.7273 11.6114 60.5577C12.4418 61.3882 13.5678 61.8553 14.7422 61.8566H61.25C62.4243 61.855 63.5499 61.3877 64.3802 60.5573C65.2104 59.727 65.6775 58.6012 65.6789 57.427V57.427Z" fill="#4F5D6D"/>
<path d="M17.591 51.0547C17.332 51.0547 17.0836 51.1576 16.9005 51.3407C16.7173 51.5239 16.6144 51.7722 16.6144 52.0312C16.6144 52.2903 16.7173 52.5386 16.9005 52.7218C17.0836 52.9049 17.332 53.0078 17.591 53.0078H23.7465C24.0055 53.0078 24.2539 52.9049 24.437 52.7218C24.6201 52.5386 24.723 52.2903 24.723 52.0312C24.723 51.7722 24.6201 51.5239 24.437 51.3407C24.2539 51.1576 24.0055 51.0547 23.7465 51.0547H17.591Z" fill="#4F5D6D"/>
<path d="M29.1406 51.0547C28.8816 51.0547 28.6332 51.1576 28.4501 51.3407C28.2669 51.5239 28.1641 51.7722 28.1641 52.0312C28.1641 52.2903 28.2669 52.5386 28.4501 52.7218C28.6332 52.9049 28.8816 53.0078 29.1406 53.0078H35.2977C35.5567 53.0078 35.8051 52.9049 35.9882 52.7218C36.1713 52.5386 36.2742 52.2903 36.2742 52.0312C36.2742 51.7722 36.1713 51.5239 35.9882 51.3407C35.8051 51.1576 35.5567 51.0547 35.2977 51.0547H29.1406Z" fill="#4F5D6D"/>
<path d="M39.7176 52.0312C39.7176 52.2903 39.8205 52.5386 40.0036 52.7218C40.1868 52.9049 40.4352 53.0078 40.6942 53.0078H46.8496C47.1086 53.0078 47.357 52.9049 47.5402 52.7218C47.7233 52.5386 47.8262 52.2903 47.8262 52.0312C47.8262 51.7722 47.7233 51.5239 47.5402 51.3407C47.357 51.1576 47.1086 51.0547 46.8496 51.0547H40.6942C40.4352 51.0547 40.1868 51.1576 40.0036 51.3407C39.8205 51.5239 39.7176 51.7722 39.7176 52.0312Z" fill="#4F5D6D"/>
<path d="M52.2453 53.0078H58.4008C58.6598 53.0078 58.9082 52.9049 59.0913 52.7218C59.2744 52.5386 59.3773 52.2903 59.3773 52.0312C59.3773 51.7722 59.2744 51.5239 59.0913 51.3407C58.9082 51.1576 58.6598 51.0547 58.4008 51.0547H52.2453C51.9863 51.0547 51.7379 51.1576 51.5548 51.3407C51.3716 51.5239 51.2687 51.7722 51.2687 52.0312C51.2687 52.2903 51.3716 52.5386 51.5548 52.7218C51.7379 52.9049 51.9863 53.0078 52.2453 53.0078Z" fill="#4F5D6D"/>
<path d="M60.2515 41.8453C57.955 41.8451 55.694 41.2786 53.6687 40.1959C51.6435 39.1132 49.9165 37.5477 48.6408 35.6381C47.3651 33.7285 46.58 31.5338 46.3551 29.2483C46.1302 26.9629 46.4724 24.6572 47.3515 22.5356C48.2305 20.414 49.6192 18.5419 51.3946 17.0852C53.17 15.6285 55.2772 14.6322 57.5297 14.1844C59.7821 13.7366 62.1102 13.8513 64.3078 14.5182C66.5053 15.1851 68.5044 16.3837 70.1281 18.0078V18.0078C72.0825 19.9603 73.4136 22.4487 73.9531 25.1581C74.4926 27.8675 74.2161 30.6761 73.1586 33.2282C72.1012 35.7804 70.3103 37.9615 68.0127 39.4954C65.7151 41.0293 63.0141 41.8471 60.2515 41.8453V41.8453ZM60.2515 15.8687C57.4717 15.8687 54.7779 16.8324 52.629 18.5959C50.4802 20.3593 49.0093 22.8133 48.4669 25.5397C47.9245 28.2661 48.3443 31.0962 49.6546 33.5477C50.965 35.9993 53.0849 37.9207 55.6531 38.9845C58.2213 40.0483 61.0789 40.1888 63.739 39.3818C66.3991 38.5749 68.6971 36.8706 70.2415 34.5593C71.7859 32.248 72.4811 29.4727 72.2086 26.7062C71.9361 23.9398 70.7129 21.3535 68.7472 19.3879V19.3879C67.6341 18.2688 66.3101 17.3816 64.8518 16.7776C63.3935 16.1737 61.8299 15.865 60.2515 15.8695V15.8687Z" fill="#747EE9"/>
<path d="M60.2516 37.4828C58.0309 37.4813 55.8795 36.7099 54.1638 35.3C52.4481 33.8902 51.2743 31.929 50.8425 29.7508C50.4106 27.5725 50.7473 25.3119 51.7953 23.3541C52.8433 21.3962 54.5377 19.8624 56.5898 19.0137C58.6419 18.1651 60.9248 18.0542 63.0495 18.7C65.1741 19.3458 67.0092 20.7083 68.242 22.5554C69.4747 24.4024 70.0289 26.6198 69.8102 28.8296C69.5914 31.0395 68.6132 33.1051 67.0422 34.6746C66.1511 35.5669 65.0924 36.2743 63.9271 36.7562C62.7617 37.2382 61.5126 37.4851 60.2516 37.4828V37.4828ZM60.2516 20.2379C58.4827 20.2393 56.769 20.8539 55.4025 21.9771C54.036 23.1003 53.1011 24.6625 52.7573 26.3976C52.4134 28.1328 52.6818 29.9334 53.5167 31.4929C54.3516 33.0523 55.7013 34.2741 57.336 34.9499C58.9707 35.6258 60.7891 35.714 62.4815 35.1995C64.1739 34.685 65.6356 33.5996 66.6174 32.1283C67.5993 30.6569 68.0407 28.8907 67.8664 27.1304C67.692 25.3701 66.9128 23.7248 65.6613 22.4746C64.9513 21.7639 64.1079 21.2004 63.1796 20.8166C62.2512 20.4328 61.2562 20.2361 60.2516 20.2379V20.2379Z" fill="#EDEFF2"/>
<path d="M78.9739 50.2121C78.5001 50.2132 78.0308 50.1205 77.593 49.9395C77.1551 49.7585 76.7574 49.4927 76.4227 49.1574L67.4086 40.1442C67.2255 39.961 67.1226 39.7126 67.1226 39.4535C67.1226 39.1945 67.2255 38.9461 67.4086 38.7629C67.5918 38.5797 67.8402 38.4768 68.0993 38.4768C68.3583 38.4768 68.6067 38.5797 68.7899 38.7629L77.8036 47.7766C78.1153 48.0802 78.5341 48.2488 78.9693 48.2458C79.4044 48.2429 79.8209 48.0688 80.1286 47.761C80.4363 47.4533 80.6104 47.0368 80.6133 46.6016C80.6161 46.1664 80.4474 45.7477 80.1438 45.4359L71.1305 36.4223C71.0372 36.3322 70.9628 36.2244 70.9117 36.1053C70.8605 35.9861 70.8335 35.858 70.8324 35.7283C70.8313 35.5987 70.856 35.4701 70.9051 35.3501C70.9542 35.23 71.0267 35.121 71.1184 35.0293C71.2101 34.9376 71.3191 34.8651 71.4391 34.816C71.5592 34.7669 71.6878 34.7422 71.8174 34.7433C71.9471 34.7444 72.0752 34.7714 72.1944 34.8226C72.3135 34.8738 72.4213 34.9481 72.5114 35.0414L81.5235 44.0547C82.0283 44.559 82.3721 45.2018 82.5115 45.9016C82.6508 46.6014 82.5794 47.3268 82.3063 47.9861C82.0332 48.6453 81.5707 49.2087 80.9773 49.6049C80.3839 50.0012 79.6863 50.2125 78.9727 50.2121H78.9739Z" fill="#747EE9"/>
</svg>
