<svg width="375" height="360" viewBox="0 0 375 360" fill="none" xmlns="http://www.w3.org/2000/svg">
<g clip-path="url(#clip0_459_4902)">
<rect width="375" height="360" fill="url(#paint0_linear_459_4902)"/>
<path opacity="0.1" d="M94.5128 333.468C168.6 310.642 238.354 272.161 270.932 199.706C283.742 171.216 298.564 138.94 313.553 104.547C342.644 78.0233 371.566 53.867 399.494 33.7559C569.164 -88.4228 516.169 -236.033 474.969 -330.609C442.008 -406.269 407.038 -327.399 393.674 -278.506C426.272 -177.686 368.782 -22.1888 313.553 104.547C236.666 174.645 158.59 261.278 94.5128 333.468C-4.5556 363.991 -111.372 366.523 -147.413 384.867C-210.405 416.931 -93.4843 516.454 -34.991 471.933C-11.5724 454.109 35.5419 399.905 94.5128 333.468Z" fill="#FFF0F5"/>
</g>
<defs>
<linearGradient id="paint0_linear_459_4902" x1="187.5" y1="63.5294" x2="187.493" y2="1065.74" gradientUnits="userSpaceOnUse">
<stop stop-color="#747EE9"/>
<stop offset="1" stop-color="#10054D"/>
</linearGradient>
<clipPath id="clip0_459_4902">
<rect width="375" height="360" fill="white"/>
</clipPath>
</defs>
</svg>
