<svg width="100" height="100" viewBox="0 0 100 100" fill="none" xmlns="http://www.w3.org/2000/svg">
<path d="M32.7449 39.4531C27.4465 39.4531 22.7313 35.902 21.0114 30.6164C20.9312 30.3701 20.9522 30.1021 21.0697 29.8712C21.1872 29.6404 21.3916 29.4657 21.6379 29.3856C21.8842 29.3054 22.1523 29.3264 22.3831 29.4439C22.6139 29.5614 22.7886 29.7658 22.8688 30.0121C24.3258 34.4922 28.2949 37.5 32.7449 37.5C33.284 37.5001 33.8221 37.4562 34.3539 37.3688C34.4805 37.3479 34.6099 37.3521 34.7348 37.3813C34.8597 37.4104 34.9777 37.4639 35.0819 37.5386C35.1862 37.6133 35.2747 37.7078 35.3424 37.8168C35.4101 37.9257 35.4557 38.0469 35.4766 38.1735C35.4975 38.3 35.4932 38.4294 35.4641 38.5543C35.4349 38.6792 35.3815 38.7972 35.3068 38.9014C35.232 39.0057 35.1375 39.0942 35.0286 39.1619C34.9197 39.2296 34.7985 39.2752 34.6719 39.2961C34.0349 39.4005 33.3905 39.453 32.7449 39.4531Z" fill="#EDEFF2"/>
<path d="M66.4742 39.4531C65.8286 39.4533 65.1841 39.401 64.5469 39.2969C64.2913 39.2548 64.0629 39.1129 63.912 38.9024C63.761 38.6919 63.6999 38.43 63.742 38.1744C63.7841 37.9189 63.926 37.6905 64.1365 37.5395C64.347 37.3886 64.6089 37.3274 64.8645 37.3696C65.3966 37.457 65.935 37.5009 66.4742 37.5008C70.9238 37.5008 74.893 34.493 76.35 30.0129C76.4332 29.7705 76.6083 29.5704 76.8377 29.456C77.067 29.3415 77.3322 29.3218 77.5759 29.4011C77.8197 29.4805 78.0225 29.6524 78.1405 29.8799C78.2586 30.1074 78.2825 30.3722 78.2071 30.6172C76.4879 35.902 71.7723 39.4531 66.4742 39.4531Z" fill="#EDEFF2"/>
<path d="M53.1742 86.6559C52.7619 86.6566 52.351 86.6077 51.9504 86.5102L28.6692 80.7617V81.2012C28.6686 81.682 28.4774 82.1429 28.1375 82.4829C27.7976 82.8229 27.3367 83.0142 26.8559 83.0148H16.9442C16.6852 83.0148 16.4368 82.912 16.2536 82.7288C16.0705 82.5457 15.9676 82.2973 15.9676 82.0383C15.9676 81.7793 16.0705 81.5309 16.2536 81.3478C16.4368 81.1646 16.6852 81.0617 16.9442 81.0617H26.7141V79.5148C26.7141 79.3667 26.7478 79.2204 26.8127 79.0872C26.8776 78.954 26.9719 78.8372 27.0886 78.7459C27.2053 78.6545 27.3413 78.5909 27.4862 78.5599C27.6311 78.5289 27.7812 78.5312 27.925 78.5668L52.4172 84.6137C53.1086 84.7797 53.8351 84.7166 54.4875 84.434L79.7332 73.2289C79.8504 73.1769 79.9768 73.1484 80.105 73.1452C80.2332 73.142 80.3608 73.164 80.4804 73.2101C80.6001 73.2562 80.7096 73.3254 80.8025 73.4138C80.8954 73.5022 80.97 73.608 81.0221 73.7252C81.0741 73.8424 81.1026 73.9687 81.1058 74.0969C81.109 74.2252 81.087 74.3527 81.0409 74.4724C80.9948 74.5921 80.9256 74.7015 80.8372 74.7945C80.7488 74.8874 80.643 74.962 80.5258 75.0141L55.2793 86.2199C54.6152 86.509 53.8985 86.6574 53.1742 86.6559V86.6559Z" fill="#EDEFF2"/>
<path d="M21.8976 72.5918C21.3475 72.5919 20.8096 72.4288 20.3521 72.1232C19.8946 71.8176 19.5381 71.3832 19.3275 70.8749C19.1169 70.3666 19.0617 69.8073 19.169 69.2677C19.2763 68.7281 19.5412 68.2324 19.9302 67.8434C20.3192 67.4543 20.8148 67.1893 21.3544 67.082C21.894 66.9746 22.4533 67.0297 22.9616 67.2402C23.4699 67.4507 23.9044 67.8073 24.2101 68.2647C24.5157 68.7222 24.6789 69.26 24.6789 69.8101C24.6782 70.5476 24.3849 71.2546 23.8635 71.7761C23.3421 72.2976 22.6351 72.591 21.8976 72.5918ZM21.8976 68.982C21.7337 68.9819 21.5735 69.0305 21.4372 69.1215C21.3009 69.2125 21.1946 69.3419 21.1319 69.4933C21.0691 69.6447 21.0527 69.8113 21.0846 69.9721C21.1166 70.1328 21.1955 70.2805 21.3114 70.3964C21.4273 70.5123 21.575 70.5912 21.7357 70.6231C21.8965 70.6551 22.0631 70.6387 22.2145 70.5759C22.3659 70.5132 22.4953 70.4069 22.5863 70.2706C22.6773 70.1343 22.7258 69.974 22.7258 69.8101C22.7255 69.5906 22.6381 69.3801 22.4829 69.2249C22.3276 69.0697 22.1172 68.9823 21.8976 68.982V68.982Z" fill="#747EE9"/>
<path d="M32.2207 45.3606C32.518 45.3606 32.816 45.3485 33.1133 45.3262C33.6633 49.3105 35.6368 52.9611 38.669 55.6035C41.7013 58.246 45.5875 59.7017 49.6096 59.7017C53.6317 59.7017 57.5178 58.246 60.5501 55.6035C63.5824 52.9611 65.5558 49.3105 66.1059 45.3262C66.4027 45.3481 66.7004 45.3618 66.998 45.3618C70.1502 45.3582 73.1723 44.1044 75.4011 41.8753C77.63 39.6463 78.8835 36.6241 78.8867 33.4719C78.8867 27.2141 68.2551 11.6692 67.8027 11.011C67.713 10.8804 67.5928 10.7736 67.4526 10.6998C67.3124 10.626 67.1563 10.5874 66.9978 10.5874C66.8394 10.5874 66.6833 10.626 66.5431 10.6998C66.4029 10.7736 66.2827 10.8804 66.193 11.011C63.3881 15.1487 60.8075 19.4342 58.4625 23.8489C54.6191 17.1567 50.7348 11.477 50.4156 11.011C50.3259 10.8803 50.2057 10.7734 50.0655 10.6996C49.9252 10.6257 49.7691 10.5871 49.6105 10.5871C49.452 10.5871 49.2959 10.6257 49.1556 10.6996C49.0154 10.7734 48.8952 10.8803 48.8055 11.011C48.4855 11.477 44.6008 17.1567 40.7586 23.8489C38.4126 19.434 35.8312 15.1484 33.0254 11.0106C32.9357 10.88 32.8155 10.7732 32.6753 10.6994C32.535 10.6256 32.379 10.587 32.2205 10.587C32.0621 10.587 31.906 10.6256 31.7657 10.6994C31.6255 10.7732 31.5054 10.88 31.4156 11.0106C30.9633 11.6692 20.332 27.2141 20.332 33.4715C20.3354 36.6236 21.5891 39.6456 23.8179 41.8744C26.0467 44.1033 29.0686 45.3571 32.2207 45.3606V45.3606ZM67.0004 13.3133C70.3785 18.3985 76.9336 29.1547 76.9336 33.4719C76.9306 36.1061 75.8829 38.6315 74.0202 40.4941C72.1576 42.3567 69.6322 43.4045 66.998 43.4075C66.7512 43.4075 66.5039 43.3961 66.2559 43.3782C66.2582 43.2664 66.2644 43.1563 66.2644 43.0442C66.2644 39.0098 63.1121 32.2039 59.6176 25.8977C62.0176 21.0071 65.4566 15.6481 67.0004 13.3133V13.3133ZM49.6094 13.3125C51.1215 15.5828 54.5133 20.7899 57.659 26.3985C57.6668 26.4133 57.6746 26.4282 57.6836 26.4426C61.1512 32.6297 64.3129 39.2965 64.3129 43.0442C64.2929 46.9306 62.7349 50.651 59.9797 53.3921C57.2245 56.1332 53.4961 57.6719 49.6096 57.6719C45.7231 57.6719 41.9947 56.1332 39.2394 53.3921C36.4842 50.651 34.9263 46.9306 34.9062 43.0442C34.9062 39.2942 38.0703 32.625 41.5395 26.4356C41.5449 26.4266 41.5496 26.4176 41.5547 26.4086C44.702 20.7965 48.0969 15.586 49.6094 13.3125ZM32.218 13.3125C33.7617 15.6465 37.2 21.0047 39.6008 25.8969C36.1062 32.2032 32.9543 39.009 32.9543 43.0453C32.9543 43.1575 32.9605 43.2684 32.9629 43.3801C32.716 43.3981 32.4687 43.4086 32.2207 43.4086C29.5863 43.4056 27.0608 42.3577 25.1981 40.4948C23.3354 38.632 22.2878 36.1063 22.2852 33.4719C22.2852 29.1563 28.8402 18.3985 32.218 13.3133V13.3125Z" fill="#4F5D6D"/>
<path d="M83.6391 71.1718C83.0797 69.798 82.0295 68.6812 80.6925 68.0386C79.3555 67.3961 77.8273 67.2737 76.4051 67.6953L58.9164 72.8566C58.9493 72.285 58.9091 71.7115 58.7969 71.15L58.7817 71.0691C58.6025 70.0683 58.134 69.1418 57.4342 68.4043C56.7344 67.6667 55.8338 67.1502 54.8438 66.9187L40.9598 63.4488C39.9003 63.1853 38.7844 63.2649 37.7731 63.6761L28.6672 67.3664V64.9117C28.6667 64.4309 28.4755 63.9699 28.1356 63.6299C27.7956 63.2899 27.3347 63.0986 26.8539 63.098H16.9442C16.4633 63.0985 16.0023 63.2898 15.6623 63.6298C15.3223 63.9698 15.131 64.4308 15.1305 64.9117V85.107C15.131 85.5878 15.3223 86.0489 15.6623 86.3889C16.0023 86.7289 16.4633 86.9201 16.9442 86.9207H26.8539C27.3347 86.92 27.7956 86.7288 28.1356 86.3887C28.4755 86.0487 28.6667 85.5878 28.6672 85.107V84.6679L51.9485 90.4164C52.3491 90.5139 52.76 90.5628 53.1723 90.5621C53.8967 90.5637 54.6136 90.4153 55.2777 90.1261L80.5242 78.9203C81.9549 78.2941 83.0827 77.1316 83.6651 75.6826C84.2476 74.2337 84.2383 72.614 83.6391 71.1718V71.1718ZM79.7328 77.1355L54.4871 88.3406C53.8347 88.623 53.1082 88.6861 52.4168 88.5203L27.9246 82.4734C27.7808 82.4378 27.6307 82.4355 27.4858 82.4665C27.3409 82.4975 27.2049 82.5611 27.0883 82.6525C26.9716 82.7438 26.8772 82.8605 26.8123 82.9938C26.7474 83.127 26.7137 83.2733 26.7137 83.4214V84.9683H17.0836V65.0511H26.7141V68.807C26.7141 68.8101 26.7141 68.8133 26.7141 68.8164V79.857C26.7141 80.116 26.817 80.3644 27.0001 80.5475C27.1833 80.7307 27.4316 80.8336 27.6906 80.8336C27.9496 80.8336 28.198 80.7307 28.3812 80.5475C28.5643 80.3644 28.6672 80.116 28.6672 79.857V69.4746L38.5082 65.4863C39.137 65.2296 39.8313 65.1799 40.4903 65.3445L54.3723 68.814C54.9925 68.9539 55.5582 69.2724 55.9995 69.7302C56.4408 70.1879 56.7384 70.7649 56.8555 71.3898L56.8785 71.516C56.9567 71.9234 57.191 73.164 56.5117 73.9843C55.9649 74.6437 54.8567 74.9918 53.3028 74.9918C52.121 74.9338 50.9473 74.7654 49.7969 74.4886C49.2938 74.3855 48.8203 74.2879 48.4129 74.2238C48.2858 74.203 48.1559 74.2075 48.0306 74.237C47.9053 74.2666 47.787 74.3207 47.6827 74.3961C47.5783 74.4716 47.4899 74.5669 47.4226 74.6766C47.3552 74.7864 47.3102 74.9083 47.2902 75.0355C47.2702 75.1627 47.2755 75.2926 47.3058 75.4178C47.3362 75.5429 47.391 75.6608 47.4671 75.7646C47.5432 75.8685 47.6391 75.9563 47.7493 76.023C47.8594 76.0896 47.9817 76.1339 48.109 76.1531C48.4707 76.2101 48.9238 76.3031 49.4035 76.4019C50.683 76.7065 51.9887 76.8884 53.3028 76.9449C55.4883 76.9449 57.0738 76.3683 58.0164 75.2304C58.0422 75.1988 58.0676 75.1672 58.0926 75.1351C58.1156 75.13 58.1391 75.1238 58.1625 75.1172L76.9578 69.5703C77.9411 69.2812 78.9976 69.3768 79.913 69.8378C80.8284 70.2989 81.5343 71.0907 81.8874 72.0529C82.2406 73.0151 82.2146 74.0756 81.8148 75.0193C81.415 75.9631 80.6713 76.7195 79.7344 77.1351L79.7328 77.1355Z" fill="#4F5D6D"/>
<path d="M48.5371 45.0582C48.4034 45.0583 48.2711 45.0308 48.1484 44.9776C48.0257 44.9244 47.9152 44.8465 47.8239 44.7489L42.6711 39.2411C42.4942 39.0519 42.3996 38.8002 42.4083 38.5413C42.4169 38.2824 42.528 38.0375 42.7172 37.8606C42.9064 37.6836 43.1581 37.5891 43.417 37.5977C43.6759 37.6064 43.9207 37.7175 44.0977 37.9067L48.4848 42.5961L55.6422 33.7731C55.8054 33.5719 56.0418 33.4439 56.2994 33.417C56.557 33.3902 56.8147 33.4667 57.0158 33.6299C57.217 33.7931 57.3451 34.0295 57.3719 34.2871C57.3988 34.5447 57.3222 34.8024 57.159 35.0035L49.2969 44.6969C49.209 44.8052 49.0989 44.8934 48.9741 44.9556C48.8492 45.0178 48.7125 45.0525 48.5731 45.0575L48.5371 45.0582Z" fill="#747EE9"/>
</svg>
