<svg width="100" height="100" viewBox="0 0 80 80" fill="none" xmlns="http://www.w3.org/2000/svg">
<path d="M40 73.3334C40 73.3334 66.6666 60 66.6666 40V16.6667L40 6.66669L13.3333 16.6667V40C13.3333 60 40 73.3334 40 73.3334Z" stroke="#4F5D6D" stroke-width="2" stroke-linecap="round" stroke-linejoin="round"/>
<path d="M49.3333 33.8667H30.6667C29.1939 33.8667 28 35.0606 28 36.5334V45.8667C28 47.3395 29.1939 48.5334 30.6667 48.5334H49.3333C50.8061 48.5334 52 47.3395 52 45.8667V36.5334C52 35.0606 50.8061 33.8667 49.3333 33.8667Z" stroke="#747EE9" stroke-width="2" stroke-linecap="round" stroke-linejoin="round"/>
<path d="M33.3333 33.8667V28.5334C33.3333 26.7653 34.0357 25.0696 35.2859 23.8193C36.5362 22.5691 38.2319 21.8667 40 21.8667C41.7681 21.8667 43.4638 22.5691 44.714 23.8193C45.9643 25.0696 46.6666 26.7653 46.6666 28.5334V33.8667" stroke="#747EE9" stroke-width="2" stroke-linecap="round" stroke-linejoin="round"/>
</svg>
