<svg width="100" height="100" viewBox="0 0 100 100" fill="none" xmlns="http://www.w3.org/2000/svg">
<path d="M47.3633 72.5391C47.1043 72.5391 46.8559 72.4362 46.6728 72.2531C46.4896 72.0699 46.3867 71.8216 46.3867 71.5626C46.3897 71.3988 46.3599 71.2361 46.2993 71.0839C46.2386 70.9318 46.1483 70.7932 46.0335 70.6764C45.9187 70.5595 45.7818 70.4667 45.6307 70.4034C45.4797 70.34 45.3175 70.3074 45.1537 70.3074C44.9899 70.3074 44.8278 70.34 44.6767 70.4034C44.5257 70.4667 44.3888 70.5595 44.274 70.6764C44.1592 70.7932 44.0689 70.9318 44.0082 71.0839C43.9476 71.2361 43.9178 71.3988 43.9207 71.5626C43.9207 71.8216 43.8178 72.0699 43.6347 72.2531C43.4516 72.4362 43.2032 72.5391 42.9442 72.5391C42.6852 72.5391 42.4368 72.4362 42.2536 72.2531C42.0705 72.0699 41.9676 71.8216 41.9676 71.5626C41.9629 71.1412 42.0419 70.7231 42.1999 70.3324C42.358 69.9418 42.5919 69.5863 42.8882 69.2867C43.1845 68.9871 43.5374 68.7492 43.9262 68.5869C44.3151 68.4245 44.7323 68.3409 45.1537 68.3409C45.5751 68.3409 45.9924 68.4245 46.3812 68.5869C46.7701 68.7492 47.1229 68.9871 47.4192 69.2867C47.7156 69.5863 47.9495 69.9418 48.1075 70.3324C48.2656 70.7231 48.3445 71.1412 48.3399 71.5626C48.3399 71.8216 48.237 72.0699 48.0538 72.2531C47.8707 72.4362 47.6223 72.5391 47.3633 72.5391Z" fill="#747EE9"/>
<path d="M57.0559 72.5391C56.7969 72.5391 56.5485 72.4362 56.3653 72.2531C56.1822 72.0699 56.0793 71.8216 56.0793 71.5626C56.0822 71.3988 56.0525 71.2361 55.9918 71.0839C55.9312 70.9318 55.8408 70.7932 55.726 70.6764C55.6112 70.5595 55.4743 70.4667 55.3233 70.4034C55.1722 70.34 55.0101 70.3074 54.8463 70.3074C54.6825 70.3074 54.5204 70.34 54.3693 70.4034C54.2183 70.4667 54.0813 70.5595 53.9666 70.6764C53.8518 70.7932 53.7614 70.9318 53.7008 71.0839C53.6401 71.2361 53.6104 71.3988 53.6133 71.5626C53.6133 71.8216 53.5104 72.0699 53.3273 72.2531C53.1441 72.4362 52.8957 72.5391 52.6367 72.5391C52.3777 72.5391 52.1293 72.4362 51.9462 72.2531C51.7631 72.0699 51.6602 71.8216 51.6602 71.5626C51.6555 71.1412 51.7345 70.7231 51.8925 70.3324C52.0505 69.9418 52.2845 69.5863 52.5808 69.2867C52.8771 68.9871 53.2299 68.7492 53.6188 68.5869C54.0077 68.4245 54.4249 68.3409 54.8463 68.3409C55.2677 68.3409 55.6849 68.4245 56.0738 68.5869C56.4627 68.7492 56.8155 68.9871 57.1118 69.2867C57.4081 69.5863 57.6421 69.9418 57.8001 70.3324C57.9581 70.7231 58.0371 71.1412 58.0324 71.5626C58.0324 71.8216 57.9295 72.0699 57.7464 72.2531C57.5632 72.4362 57.3149 72.5391 57.0559 72.5391Z" fill="#747EE9"/>
<path d="M50 82.3898C48.9232 82.3918 47.8565 82.1809 46.8614 81.7694C45.8662 81.3578 44.9622 80.7537 44.2012 79.9918C44.0233 79.8076 43.9249 79.5609 43.9271 79.3049C43.9293 79.0488 44.032 78.8039 44.2131 78.6228C44.3942 78.4418 44.6391 78.3391 44.8951 78.3368C45.1512 78.3346 45.3979 78.433 45.5821 78.6109C46.7548 79.7807 48.3436 80.4376 50 80.4376C51.6564 80.4376 53.2453 79.7807 54.418 78.6109C54.6022 78.433 54.8489 78.3346 55.1049 78.3368C55.361 78.3391 55.6059 78.4418 55.787 78.6228C55.968 78.8039 56.0707 79.0488 56.073 79.3049C56.0752 79.5609 55.9768 79.8076 55.7989 79.9918C55.0379 80.7537 54.1338 81.3578 53.1387 81.7694C52.1436 82.1809 51.0769 82.3918 50 82.3898Z" fill="#747EE9"/>
<path d="M86.5234 26.6152H56.7059C55.4113 26.6166 54.1702 27.1315 53.2548 28.0469C52.3394 28.9623 51.8245 30.2034 51.823 31.498V50.6136C51.8245 51.9082 52.3394 53.1493 53.2548 54.0647C54.1702 54.9801 55.4113 55.495 56.7059 55.4964H70.6379V71.9922C70.6379 72.2512 70.535 72.4995 70.3519 72.6827C70.1687 72.8658 69.9203 72.9687 69.6613 72.9687H64.198C63.9519 69.371 62.349 66.0008 59.7134 63.5394C57.0779 61.0781 53.6062 59.709 50 59.709C46.3938 59.709 42.9221 61.0781 40.2866 63.5394C37.651 66.0008 36.0481 69.371 35.802 72.9687H30.3387C30.0797 72.9687 29.8313 72.8658 29.6481 72.6827C29.465 72.4995 29.3621 72.2512 29.3621 71.9922V42.0312H43.2941C44.5887 42.0298 45.8298 41.5149 46.7452 40.5995C47.6606 39.6841 48.1755 38.443 48.177 37.1484V18.0339C48.1755 16.7394 47.6606 15.4983 46.7452 14.5829C45.8298 13.6675 44.5887 13.1526 43.2941 13.1511H13.4766C12.182 13.1526 10.9409 13.6675 10.0255 14.5829C9.1101 15.4983 8.5952 16.7394 8.59375 18.0339V37.1484C8.5952 38.443 9.1101 39.6841 10.0255 40.5995C10.9409 41.5149 12.182 42.0298 13.4766 42.0312H27.409V71.9922C27.4098 72.7689 27.7187 73.5136 28.268 74.0628C28.8172 74.6121 29.5619 74.921 30.3387 74.9218H35.802C36.0481 78.5196 37.651 81.8897 40.2866 84.3511C42.9221 86.8125 46.3938 88.1815 50 88.1815C53.6062 88.1815 57.0779 86.8125 59.7134 84.3511C62.349 81.8897 63.9519 78.5196 64.198 74.9218H69.6613C70.4381 74.921 71.1828 74.6121 71.732 74.0628C72.2813 73.5136 72.5902 72.7689 72.591 71.9922V55.4964H86.5234C87.818 55.495 89.0591 54.9801 89.9745 54.0647C90.8899 53.1493 91.4048 51.9082 91.4062 50.6136V31.498C91.4048 30.2034 90.8899 28.9623 89.9745 28.0469C89.0591 27.1315 87.818 26.6166 86.5234 26.6152V26.6152ZM10.5469 37.1484V18.0339C10.5477 17.2572 10.8566 16.5125 11.4059 15.9632C11.9551 15.414 12.6998 15.1051 13.4766 15.1042H43.2941C44.0709 15.1051 44.8156 15.414 45.3648 15.9632C45.9141 16.5125 46.223 17.2572 46.2238 18.0339V37.1484C46.223 37.9251 45.9141 38.6698 45.3648 39.2191C44.8156 39.7683 44.0709 40.0773 43.2941 40.0781H13.4766C12.6998 40.0773 11.9551 39.7683 11.4059 39.2191C10.8566 38.6698 10.5477 37.9251 10.5469 37.1484V37.1484ZM50 86.2254C47.5708 86.2254 45.1961 85.505 43.1763 84.1553C41.1565 82.8057 39.5822 80.8874 38.6527 78.643C37.7232 76.3986 37.48 73.929 37.9541 71.5465C38.4282 69.164 39.5981 66.9755 41.316 65.2579C43.0339 63.5403 45.2225 62.3707 47.6051 61.8971C49.9877 61.4234 52.4573 61.6669 54.7015 62.5968C56.9457 63.5267 58.8638 65.1012 60.2131 67.1212C61.5624 69.1412 62.2824 71.516 62.282 73.9453C62.2778 77.2012 60.9824 80.3225 58.6799 82.6246C56.3774 84.9267 53.2559 86.2216 50 86.2254V86.2254ZM89.4531 50.6136C89.4523 51.3904 89.1434 52.1351 88.5941 52.6843C88.0449 53.2336 87.3002 53.5425 86.5234 53.5433H56.7059C55.9291 53.5425 55.1844 53.2336 54.6352 52.6843C54.0859 52.1351 53.777 51.3904 53.7762 50.6136V31.498C53.777 30.7213 54.0859 29.9766 54.6352 29.4273C55.1844 28.8781 55.9291 28.5691 56.7059 28.5683H86.5234C87.3002 28.5691 88.0449 28.8781 88.5941 29.4273C89.1434 29.9766 89.4523 30.7213 89.4531 31.498V50.6136Z" fill="#4F5D6D"/>
<path d="M18.3289 33.3672C18.05 33.3666 17.7751 33.3002 17.5267 33.1732C17.2784 33.0462 17.0635 32.8623 16.8998 32.6365C16.736 32.4107 16.628 32.1494 16.5844 31.8739C16.5409 31.5984 16.5631 31.3165 16.6492 31.0512L17.3523 28.8875L15.5078 27.5496C15.2058 27.33 14.9811 27.0205 14.8658 26.6653C14.7505 26.3102 14.7505 25.9277 14.8659 25.5726C14.9813 25.2175 15.2061 24.908 15.5081 24.6884C15.8101 24.4689 16.1739 24.3506 16.5473 24.3504H18.8226L19.5258 22.1863C19.6413 21.8312 19.8662 21.5217 20.1684 21.3023C20.4705 21.0828 20.8344 20.9646 21.2078 20.9646C21.5812 20.9646 21.9451 21.0828 22.2473 21.3023C22.5494 21.5217 22.7743 21.8312 22.8898 22.1863L23.593 24.3504H25.8687C26.2421 24.3506 26.6059 24.4689 26.9079 24.6884C27.2099 24.908 27.4347 25.2175 27.5501 25.5726C27.6655 25.9277 27.6655 26.3102 27.5502 26.6653C27.4349 27.0205 27.2102 27.33 26.9082 27.5496L25.0672 28.8871L25.7703 31.0515C25.8856 31.4068 25.8854 31.7893 25.7699 32.1445C25.6544 32.4996 25.4295 32.8091 25.1273 33.0285C24.8252 33.248 24.4613 33.3662 24.0879 33.3662C23.7144 33.3662 23.3506 33.248 23.0484 33.0285L21.2109 31.691L19.3699 33.0285C19.0675 33.2488 18.703 33.3673 18.3289 33.3672V33.3672ZM21.2109 29.6933C21.5846 29.6934 21.9487 29.8119 22.2508 30.032L23.7406 31.1144L23.1711 29.3629C23.0549 29.0077 23.0546 28.6249 23.1701 28.2695C23.2857 27.9142 23.5112 27.6048 23.8141 27.3859L25.3031 26.3035H23.4601C23.0865 26.3042 22.7223 26.1862 22.4201 25.9666C22.1178 25.747 21.893 25.4371 21.7781 25.0816L21.2109 23.3305L20.6422 25.0816C20.5272 25.4371 20.3024 25.7469 20.0002 25.9665C19.6979 26.1861 19.3338 26.3041 18.9601 26.3035H17.1168L18.6066 27.3859C18.9091 27.6049 19.1343 27.9142 19.2498 28.2694C19.3653 28.6245 19.3651 29.0071 19.2492 29.3621L18.6801 31.114L20.1695 30.032C20.472 29.8116 20.8367 29.693 21.2109 29.6933V29.6933Z" fill="#747EE9"/>
<path d="M32.6812 33.3672C32.4021 33.367 32.127 33.3007 31.8784 33.1739C31.6298 33.047 31.4147 32.8632 31.2507 32.6373C31.0868 32.4115 30.9785 32.15 30.9349 31.8744C30.8912 31.5987 30.9134 31.3166 30.9996 31.0512L31.7027 28.8871L29.8613 27.5496C29.5593 27.33 29.3346 27.0204 29.2193 26.6652C29.104 26.3101 29.1041 25.9275 29.2195 25.5724C29.3349 25.2173 29.5598 24.9078 29.8619 24.6883C30.1639 24.4687 30.5277 24.3505 30.9012 24.3504H33.1769L33.8801 22.1863C33.9956 21.8312 34.2205 21.5217 34.5227 21.3023C34.8248 21.0828 35.1887 20.9646 35.5621 20.9646C35.9355 20.9646 36.2994 21.0828 36.6015 21.3023C36.9037 21.5217 37.1286 21.8312 37.2441 22.1863L37.9473 24.3504H40.2226C40.596 24.3506 40.9598 24.4689 41.2618 24.6884C41.5638 24.908 41.7886 25.2175 41.904 25.5726C42.0194 25.9277 42.0194 26.3102 41.9041 26.6653C41.7888 27.0205 41.5641 27.33 41.2621 27.5496L39.4211 28.8871L40.1242 31.0515C40.2395 31.4068 40.2393 31.7893 40.1238 32.1445C40.0083 32.4996 39.7834 32.8091 39.4812 33.0285C39.1791 33.248 38.8152 33.3662 38.4418 33.3662C38.0683 33.3662 37.7045 33.248 37.4023 33.0285L35.5617 31.691L33.7207 33.0285C33.4188 33.2485 33.0548 33.3671 32.6812 33.3672ZM35.5613 29.6933C35.935 29.6935 36.299 29.8121 36.6012 30.032L38.091 31.1144L37.5219 29.3629C37.4055 29.0078 37.4051 28.625 37.5205 28.2697C37.6359 27.9143 37.8613 27.6048 38.1641 27.3859L39.6535 26.3035H37.8125C37.4389 26.3041 37.0747 26.1861 36.7725 25.9665C36.4702 25.7469 36.2454 25.4371 36.1305 25.0816L35.5617 23.3308L34.993 25.0816C34.878 25.4372 34.6532 25.7471 34.3509 25.9667C34.0485 26.1863 33.6842 26.3042 33.3105 26.3035H31.4695L32.9594 27.3859C33.262 27.6051 33.4873 27.9146 33.6027 28.2699C33.7182 28.6253 33.7179 29.0081 33.6019 29.3633L33.0324 31.114L34.5223 30.032C34.824 29.812 35.1878 29.6934 35.5613 29.6933V29.6933Z" fill="#747EE9"/>
<path d="M71.6145 48.8606C71.4827 48.8607 71.3522 48.8341 71.231 48.7824C71.1097 48.7307 71.0002 48.655 70.909 48.5598C70.2606 47.8829 64.575 41.8442 64.575 38.3481C64.5741 37.5319 64.817 36.7341 65.2723 36.0567C65.7277 35.3794 66.375 34.8535 67.1311 34.5463C67.8873 34.2391 68.718 34.1646 69.5167 34.3325C70.3154 34.5003 71.0459 34.9028 71.6145 35.4883C72.1831 34.9028 72.9136 34.5004 73.7123 34.3326C74.511 34.1648 75.3417 34.2393 76.0979 34.5464C76.854 34.8536 77.5013 35.3795 77.9567 36.0568C78.4122 36.7341 78.6551 37.5319 78.6543 38.3481C78.6543 41.8442 72.9684 47.8829 72.3199 48.5598C72.2287 48.655 72.1192 48.7307 71.998 48.7824C71.8767 48.8341 71.7463 48.8607 71.6145 48.8606V48.8606ZM68.6778 36.1981C68.1082 36.199 67.5623 36.4257 67.1596 36.8284C66.7569 37.2311 66.5302 37.777 66.5293 38.3465C66.5293 40.1883 69.4078 43.9981 71.6156 46.4469C73.8238 43.9981 76.7024 40.1883 76.7024 38.3465C76.7025 37.8408 76.5243 37.3513 76.199 36.964C75.8737 36.5768 75.4222 36.3167 74.9241 36.2296C74.4259 36.1425 73.913 36.2339 73.4756 36.4877C73.0382 36.7415 72.7044 37.1415 72.5328 37.6172C72.4644 37.8059 72.3396 37.9689 72.1753 38.0841C72.011 38.1993 71.8151 38.261 71.6145 38.261V38.261C71.4138 38.261 71.218 38.1993 71.0537 38.0841C70.8893 37.9689 70.7645 37.8059 70.6961 37.6172C70.5455 37.2025 70.2712 36.8439 69.9102 36.5901C69.5492 36.3363 69.119 36.1995 68.6778 36.1981V36.1981Z" fill="#747EE9"/>
</svg>
